<?xml version="1.0" standalone="no"?>
<!DOCTYPE svg PUBLIC "-//W3C//DTD SVG 20010904//EN"
 "http://www.w3.org/TR/2001/REC-SVG-20010904/DTD/svg10.dtd">
<svg version="1.0" xmlns="http://www.w3.org/2000/svg"
 width="34.000000pt" height="34.000000pt" viewBox="0 0 34.000000 34.000000"
 preserveAspectRatio="xMidYMid meet">

<g transform="translate(0.000000,34.000000) scale(0.100000,-0.100000)"
fill="#000000" stroke="none">
<path d="M62 287 c-19 -20 -22 -35 -22 -100 0 -109 9 -117 140 -117 60 0 100
4 100 10 0 6 -36 10 -88 10 -119 0 -124 4 -120 105 l3 80 88 3 c105 3 117 -3
117 -64 0 -51 -13 -56 -35 -14 -18 36 -40 39 -56 8 l-12 -23 -10 23 c-14 31
-34 27 -57 -10 -24 -39 -25 -48 -6 -48 8 0 18 9 21 20 7 24 23 26 31 5 8 -20
40 -19 48 1 5 14 10 13 31 -10 42 -45 65 -27 65 51 0 80 -17 93 -128 93 -80 0
-91 -2 -110 -23z"/>
</g>
</svg>
